<?xml version="1.0" encoding="UTF-8"?>
<svg id="Layer_1" data-name="Layer 1" xmlns="http://www.w3.org/2000/svg" viewBox="0 0 1440 786">
  <defs>
    <style>
      .cls-1 {
        fill: #fff;
      }

      .cls-2 {
        fill: #e5e5e5;
      }
    </style>
  </defs>
  <path class="cls-2" d="M1301.89,131.16c3.79-.98,4.14.94,6.24,2.32,3.94,2.56,23.39,21,26.14,24.74,1.46,2,3.46,2.33,2.45,5.9-59.01,10.68-71.79,88.83-19.74,116.54,6.12,3.26,10.57,3.7,16.32,5.82,2.58.95,4.26-1.25,3.41,3.73-4.79,3.3-31.05,32.67-34.81,29.49-10.44-57.67-92.29-67.34-122.51-18.15-3.05,4.97-3.98,10.58-6.43,15.18-.87,1.63-.23,4.57-4.23,2.96-3.11-1.26-33.32-31.37-31.15-32.95,73.52-12.03,71.18-108.8.01-123.75l34.81-31.82c15.69,67.4,116.15,68.04,129.49,0Z"/>
  <g>
    <path class="cls-1" d="M300.43,224.39v144.36h-37.42v-43.08h-102.13v43.08h-37.42v-144.36h.07l46.95-125.52h82.91l46.96,125.52h.07ZM263.01,268.92v-33.21l-29.96-80.08h-42.21l-29.96,80.08v33.21h102.13Z"/>
    <path class="cls-1" d="M473.54,155.93h-70.26v213.77h-37.42v-213.77h-70.26v-56.75h177.94v56.75Z"/>
    <path class="cls-1" d="M627.39,98.85h37.42v270.04h-37.42v-102.89h-101.13v102.8h-37.42V98.87h37.42v110.38h101.13v-110.4Z"/>
    <path class="cls-1" d="M702.41,98.85h168.55v56.76h-140.52v80.06l.41-.36,8.98-7.74,29.46-25.41h81.61v56.75h-74.31l-27.89,24.08-8.87,7.64-9.39,8.09v13.26h140.52v56.76h-140.52v.03h-37.42V98.87h9.39v-.02Z"/>
    <path class="cls-1" d="M671.87,417.29v269.86h-59.52v-.02h-1.15l-85.37-213.09h-1.4v213.1h-40.07l-.03-269.85h63.29l84.19,210.16v-210.16h40.07Z"/>
    <path class="cls-1" d="M873.01,450.82l19.9,49.59v186.72h-160.72l-12.7-31.66-20.62-51.46v-186.72h160.72l13.42,33.52ZM744.41,606.53l67.39-132.49h-72.86v118.77l4.52,11.21h-.08l1.02,2.51ZM852.85,630.39v-118.77l-4.52-11.21h.08l-.26-.69-66.45,130.67h71.16Z"/>
    <path class="cls-1" d="M1079.92,417.14h40.07v144.34h-.08l-14.06,35.07-13.49,33.68h.04l-22.77,56.74h-88.78l-5.94-14.85-16.81-41.9h.02l-13.49-33.68-14.06-35.07h-.08v-144.34h40.06v133.02l32.08,80.07h45.2l32.08-80.07v-133.02Z"/>
    <path class="cls-1" d="M1328,542.64v144.34h-40.07v-43.08h-109.35v43.08h-40.07v-144.34h.08l50.28-125.5h88.78l50.28,125.5h.08ZM1287.93,587.16v-33.2l-32.08-80.07h-45.2l-32.08,80.07v33.2h109.35Z"/>
  </g>
  <path class="cls-2" d="M1075.72,128.43c3.79-.98,4.14.94,6.24,2.32,3.94,2.56,23.39,21,26.14,24.74,1.46,2,3.46,2.33,2.45,5.9-59.01,10.68-71.79,88.83-19.74,116.54,6.12,3.26,10.57,3.7,16.32,5.82,2.58.95,4.26-1.25,3.41,3.73-4.79,3.3-31.05,32.67-34.81,29.49-10.44-57.67-92.29-67.34-122.51-18.15-3.05,4.97-3.98,10.58-6.43,15.18-.87,1.63-.23,4.57-4.23,2.96-3.11-1.26-33.32-31.37-31.15-32.95,73.52-12.03,71.18-108.8.01-123.75l34.81-31.82c15.69,67.4,116.15,68.04,129.49,0Z"/>
  <path class="cls-1" d="M251.94,441.23c50.59-4.51,112.31,4.55,157.38,37.07,42.44,30.63,62.67,79.93,20.18,129.23-64.95,75.37-236.39,75.14-302.04,1.33-39.57-44.48-28.05-92.52,12.47-125.78,30.62-25.14,76.39-38.68,112.01-41.86ZM274.89,448.64c-19.1,3.96-30.71,28.03-36.87,50.63l36.87,4.13v-54.77ZM281.03,448.64v54.77l36.85-2.77c-5.94-22.88-17.4-48.1-36.85-52ZM250.32,454.15c-10.34.42-21.03,6.61-30.02,13.21-2.67,1.96-21.98,18.19-19.1,22.34l28.62,8.22c1.18-18.47,12.57-30.48,20.51-43.77ZM354.73,489.69c-11-19.71-30.91-33.28-49.13-35.54,8.56,12.99,17.11,26.51,20.61,43.72l28.52-8.18ZM375.19,473.33l-24.56-10.97c4.92,5.43,23.29,28.8,24.56,10.97ZM176.61,489.75c-17.03-19-52.79,49.62-45.04,60.21l26.76-1.18c1.94-23.29,10.43-39.22,18.28-59.03ZM424.34,549.95c6.74-8.96-27.67-79.65-45.04-60.2,7.1,20.16,15.78,35.97,18.28,59.03l26.76,1.17ZM178.67,549.96h42.99l4.02-43.71-31.44-7.7c-6.34,1.62-17.6,41.18-15.57,51.41ZM377.25,549.96c-1.62-18.61-5.25-37.87-15.53-51.55l-31.49,7.83,4.03,43.72h42.99ZM274.89,511.62l-38.62-2.37c-3.76,13.12-5.16,26.63-4.37,40.71h42.99v-38.34ZM281.03,511.62v38.34h42.99c.71-13.83-1.19-27.62-4.37-40.7l-38.62,2.37ZM184.8,623.86c-13.51-18.77-22.55-38.55-26.47-64.51l-26.76-1.17c.58,18.98,11.94,38.53,22.5,50.68,7.95,9.14,20.15,22.25,30.73,14.99ZM221.66,558.18h-42.99c-.88,16.17,12.89,56.82,25.56,57.76,7.25.54,17.89-5.63,25.62-5.75l-8.19-52ZM274.89,558.18h-42.99c-1.05,16.9,3.63,32.87,6.35,49.01l36.65-2.46v-46.55ZM324.02,558.18h-42.99v49.29h36.85l6.14-49.29ZM377.25,558.18h-42.99l-8.19,52c7.75.13,18.36,6.28,25.62,5.75,13.87-1,24.72-41.61,25.56-57.76ZM424.33,558.18h-28.66c.03,25.15-11.42,47.6-24.56,64.36,8.24,10.2,23.38-6,30.53-13.93,11.3-12.55,21.25-30.22,22.69-50.43ZM274.89,612.94l-32.77,4.13c5.4,18.7,17.62,36.13,32.77,39.68v-43.81ZM281.03,612.94v43.81c15.22-4.73,27.42-20.36,32.77-39.68l-32.77-4.13ZM250.32,651.25l-18.43-31.61c-2.43-1.65-21.3,4.86-22.5,8.37,12.54,10.38,25.97,20.63,40.93,23.23ZM346.53,629.34c2.56-4.95-21.97-9.89-24.43-10.86l-16.51,32.78c15.09-1.95,27.56-13.94,40.94-21.91Z"/>
</svg>